<svg width="32" height="32" viewBox="0 0 32 32" fill="none" xmlns="http://www.w3.org/2000/svg">
<g clip-path="url(#clip0_1_6085)">
<path fill-rule="evenodd" clip-rule="evenodd" d="M8.19911 0H18.8978L27.9652 9.45128V27.8341C27.9652 30.1369 26.1022 32 23.8073 32H8.19911C5.89627 32 4.0332 30.1369 4.0332 27.8341V4.1659C4.03316 1.86306 5.89622 0 8.19911 0Z" fill="#E5252A"/>
<path opacity="0.302" fill-rule="evenodd" clip-rule="evenodd" d="M18.8896 0V9.37931H27.9651L18.8896 0Z" fill="white"/>
<path d="M8.66309 23.8761V18.031H11.1499C11.7655 18.031 12.2533 18.1989 12.6211 18.5428C12.9889 18.8786 13.1729 19.3344 13.1729 19.9021C13.1729 20.4698 12.9889 20.9256 12.6211 21.2614C12.2533 21.6052 11.7655 21.7731 11.1499 21.7731H10.1583V23.8761H8.66309ZM10.1583 20.5018H10.9819C11.2058 20.5018 11.3817 20.4538 11.5017 20.3419C11.6216 20.2379 11.6856 20.094 11.6856 19.9021C11.6856 19.7102 11.6217 19.5663 11.5017 19.4623C11.3818 19.3504 11.2058 19.3024 10.9819 19.3024H10.1583V20.5018ZM13.7885 23.8761V18.031H15.8595C16.2673 18.031 16.6511 18.087 17.0109 18.2069C17.3707 18.3268 17.6986 18.4948 17.9864 18.7267C18.2743 18.9505 18.5062 19.2544 18.6741 19.6382C18.834 20.022 18.922 20.4618 18.922 20.9575C18.922 21.4453 18.834 21.8851 18.6741 22.2689C18.5062 22.6527 18.2743 22.9565 17.9864 23.1804C17.6985 23.4123 17.3707 23.5802 17.0109 23.7002C16.6511 23.8201 16.2673 23.8761 15.8595 23.8761H13.7885ZM15.2518 22.6047H15.6836C15.9154 22.6047 16.1313 22.5808 16.3312 22.5248C16.5231 22.4688 16.7071 22.3808 16.883 22.2609C17.0509 22.141 17.1868 21.973 17.2828 21.7492C17.3787 21.5253 17.4267 21.2614 17.4267 20.9575C17.4267 20.6457 17.3787 20.3818 17.2828 20.158C17.1868 19.9341 17.0509 19.7662 16.883 19.6462C16.7071 19.5263 16.5232 19.4383 16.3312 19.3824C16.1313 19.3264 15.9154 19.3024 15.6836 19.3024H15.2518V22.6047ZM19.6736 23.8761V18.031H23.8315V19.3024H21.1688V20.2379H23.2958V21.5013H21.1688V23.8761H19.6736Z" fill="white"/>
</g>
<defs>
<clipPath id="clip0_1_6085">
<rect width="32" height="32" fill="white"/>
</clipPath>
</defs>
</svg>
