<svg width="24" height="24" viewBox="0 0 24 24" fill="none" xmlns="http://www.w3.org/2000/svg">
<g clip-path="url(#clip0_1_6018)">
<g clip-path="url(#clip1_1_6018)">
<path d="M12 24C18.6274 24 24 18.6274 24 12C24 5.37258 18.6274 0 12 0C5.37258 0 0 5.37258 0 12C0 18.6274 5.37258 24 12 24Z" fill="#2AA81A"/>
<path d="M16.9819 7.01837C15.8069 5.83001 14.2457 5.10091 12.5802 4.96272C10.9147 4.82453 9.25465 5.28635 7.89981 6.26479C6.54497 7.24324 5.58459 8.67384 5.19206 10.2983C4.79953 11.9228 5.00073 13.634 5.75932 15.1232L5.0161 18.7315C5.00814 18.7675 5.00783 18.8048 5.01519 18.841C5.02255 18.8772 5.03742 18.9114 5.05883 18.9414C5.0895 18.987 5.13333 19.022 5.18446 19.0419C5.2356 19.0619 5.2916 19.0657 5.34497 19.0529L8.87526 18.215C10.3603 18.9537 12.0593 19.1414 13.6698 18.7449C15.2803 18.3483 16.6979 17.3931 17.6701 16.0493C18.6424 14.7056 19.1063 13.0604 18.9793 11.4066C18.8522 9.75288 18.1425 8.19786 16.9763 7.01837H16.9819ZM15.8782 15.8199C15.0656 16.6312 14.0191 17.1673 12.8859 17.3529C11.7528 17.5386 10.5899 17.3644 9.56088 16.8549L9.06664 16.6096L6.8983 17.1224V17.0946L7.35538 14.9076L7.11383 14.432C6.58767 13.4001 6.40189 12.2282 6.58315 11.0842C6.76441 9.94023 7.30339 8.88308 8.12275 8.06445C9.15156 7.03671 10.5463 6.45942 12.0005 6.45942C13.4547 6.45942 14.8494 7.03671 15.8782 8.06445L15.9024 8.09789C16.9178 9.1289 17.4847 10.5194 17.4795 11.9665C17.4742 13.4136 16.8974 14.8 15.8745 15.8236L15.8782 15.8199Z" fill="white"/>
<path d="M15.6862 14.2292C15.4205 14.6472 14.9987 15.1582 14.4728 15.2864C13.5438 15.5094 12.1299 15.2864 10.3591 13.6495L10.3368 13.629C8.79652 12.1909 8.38775 10.9925 8.47879 10.043C8.53268 9.50231 8.98233 9.01551 9.36137 8.69592C9.42163 8.64511 9.49295 8.60909 9.56961 8.59076C9.64628 8.57243 9.72617 8.57228 9.8029 8.59034C9.87964 8.60839 9.95108 8.64415 10.0115 8.69474C10.072 8.74534 10.1198 8.80937 10.151 8.88173L10.7215 10.1712C10.7587 10.2542 10.7727 10.3458 10.7619 10.4361C10.7511 10.5264 10.7159 10.6121 10.6601 10.684L10.3703 11.0556C10.31 11.1328 10.2741 11.2261 10.2672 11.3238C10.2602 11.4214 10.2826 11.5189 10.3313 11.6038C10.6066 12.0096 10.936 12.3759 11.3105 12.6926C11.7133 13.0803 12.1702 13.4076 12.6668 13.6643C12.7575 13.7009 12.8569 13.7096 12.9526 13.6894C13.0482 13.6692 13.1357 13.621 13.2038 13.551L13.5364 13.2128C13.5997 13.1448 13.6806 13.0956 13.7701 13.0706C13.8596 13.0457 13.9543 13.0461 14.0436 13.0716L15.4 13.46C15.4769 13.4818 15.5475 13.5215 15.6062 13.5757C15.6649 13.6299 15.71 13.6972 15.7378 13.7721C15.7657 13.847 15.7755 13.9274 15.7666 14.0068C15.7576 14.0862 15.73 14.1624 15.6862 14.2292Z" fill="white"/>
</g>
</g>
<defs>
<clipPath id="clip0_1_6018">
<rect width="24" height="24" fill="white"/>
</clipPath>
<clipPath id="clip1_1_6018">
<rect width="24" height="24" fill="white"/>
</clipPath>
</defs>
</svg>
