<svg width="40" height="40" viewBox="0 0 40 40" fill="none" xmlns="http://www.w3.org/2000/svg">
<g clip-path="url(#clip0_205_4452)">
<path d="M6.5 29.2578C7.28125 28.5625 9.16406 27.0938 15 24.4297C15.0391 24.4141 15.0781 24.3906 15.1172 24.375L16.4219 23.7891C16.4453 23.7812 16.4688 23.7656 16.4922 23.7578V25.3438L16.7891 27.9141C18.2031 27.5078 20.0078 27.0781 20.0078 27.0781L23.1641 28.1641L23.4922 25.3359V23.7578C23.5313 23.7734 23.5625 23.7891 23.6016 23.8047L24.2109 24.0781C24.6016 24.25 24.9688 24.4219 25.3281 24.5859C26.0781 24.9297 26.7578 25.25 27.375 25.5547C31.4062 27.5312 32.8203 28.6641 33.4922 29.2578C33.7578 29.4922 34.0078 29.8672 34.2266 30.3359C35.8828 27.7266 36.8438 24.6328 36.8438 21.3125C36.8516 12 29.3047 4.45312 20 4.45312C10.6953 4.45312 3.14844 12 3.14844 21.3125C3.14844 24.6328 4.10938 27.7266 5.76563 30.3359C5.99219 29.8672 6.23437 29.5 6.5 29.2578Z" fill="#00B8E9"/>
<path d="M16.5 17.3516V25.3516C17.4609 26.4922 18.7344 27.0781 20 27.0937V14.1094C18.25 14.1094 16.5 15.1875 16.5 17.3516Z" fill="#DCC5A1"/>
<path d="M20 14.1094V27.0859C21.2734 27.0938 22.5391 26.5234 23.5 25.3437V17.3516C23.5 15.1875 21.75 14.1094 20 14.1094Z" fill="#EDD9B4"/>
<path fill-rule="evenodd" clip-rule="evenodd" d="M23.5 17.2031V22.3203C22.1719 23.2422 20.8984 23.7578 20 23.7578C19.1016 23.7578 17.8203 23.2422 16.5 22.3203V17.2031C16.5 13.0781 23.5 13.0781 23.5 17.2031Z" fill="#BC9F82"/>
<path d="M15.9688 17.125C15.9688 17.125 19.375 18.2734 23.6562 17.125C23.6562 17.125 20.4688 20.9844 15.9688 17.125Z" fill="white"/>
<path d="M15.9688 17.1248C15.9688 17.1248 19.5234 18.3592 23.6562 17.1248C21.1875 16.9998 21.7031 16.8748 15.9688 17.1248Z" fill="#E5917A"/>
<path d="M15.9688 17.125C15.9688 17.125 19.7656 20.8047 23.6562 17.125C23.6562 17.125 22.8203 19.7891 20.0078 19.7969C17.1953 19.8125 15.9688 17.125 15.9688 17.125Z" fill="#E5917A"/>
<path d="M20 2.99219C12.8594 2.99219 11.6172 8.23438 11.9141 12.6016C11.6016 12.3359 11.2656 12.2188 10.9687 12.3203C10.3516 12.5234 10.1328 13.5547 10.4844 14.6172C10.8359 15.6875 11.6172 16.3828 12.2344 16.1797C12.3125 16.1562 12.3906 16.1094 12.4531 16.0547C12.7422 17.2344 13.0703 18.0781 13.2344 18.3203C14.0781 19.5703 18.0937 22.875 19.9922 22.875L20 2.99219Z" fill="#DCC5A1"/>
<path d="M29.0078 12.3203C28.7187 12.2266 28.3906 12.3281 28.0938 12.5781C28.3828 8.21094 27.1328 2.99219 20 2.99219V22.8828C21.8984 22.8828 25.9141 19.5781 26.7578 18.3281C26.9219 18.0859 27.2422 17.25 27.5312 16.0859C27.5937 16.1328 27.6562 16.1641 27.7266 16.1875C28.3438 16.3906 29.1328 15.6875 29.4766 14.625C29.8359 13.5547 29.625 12.5234 29.0078 12.3203Z" fill="#EDD9B4"/>
<path fill-rule="evenodd" clip-rule="evenodd" d="M14.6245 7.74202C13.9449 11.4686 12.2339 11.117 12.3667 15.492C11.8199 12.0858 10.9995 7.54671 13.312 4.56233C15.1636 2.17171 21.2964 0.46858 25.2652 3.32796C29.648 4.26546 28.2808 13.1951 27.6949 14.8826C27.2808 12.1483 26.3667 11.0076 25.2027 7.79671C23.6324 8.92952 16.648 9.17952 14.6245 7.74202Z" fill="#422F18"/>
<path d="M16.6328 12.3906C17.0859 12.3906 17.4609 12.8125 17.4609 13.3281C17.4609 13.8438 17.0937 14.2656 16.6328 14.2656C16.1797 14.2656 15.8047 13.8438 15.8047 13.3281C15.8047 12.8047 16.1719 12.3906 16.6328 12.3906Z" fill="#342214"/>
<path d="M23.3359 12.3906C23.7891 12.3906 24.1641 12.8125 24.1641 13.3281C24.1641 13.8438 23.7969 14.2656 23.3359 14.2656C22.8828 14.2656 22.5078 13.8438 22.5078 13.3281C22.5156 12.8047 22.8828 12.3906 23.3359 12.3906Z" fill="#342214"/>
<path d="M18.2812 18.3203C18.5781 18.9688 19.2266 19.4219 19.9844 19.4219C20.7422 19.4219 21.3984 18.9688 21.6875 18.3203H18.2812Z" fill="white"/>
<path d="M15.1172 24.375L16.4219 23.7891C15.9766 23.9922 15.5391 24.1875 15.1172 24.375Z" fill="#3E7EBC"/>
<path d="M23.6094 23.8125L24.2187 24.0859C24.0234 23.9922 23.8203 23.9062 23.6094 23.8125Z" fill="#3E7EBC"/>
<path d="M15 24.4297C15.0391 24.4141 15.0781 24.3906 15.1172 24.375L15 24.4297Z" fill="#89BCE5"/>
<path d="M16.5 23.7578L16.4297 23.7891C16.4531 23.7812 16.4766 23.7656 16.5 23.7578Z" fill="#89BCE5"/>
<path d="M25.3281 24.5781L24.2188 24.0859C24.6094 24.2578 24.9766 24.4297 25.3359 24.5938L25.3281 24.5781Z" fill="#89BCE5"/>
<path d="M23.5 23.7656C23.5391 23.7812 23.5703 23.7969 23.6094 23.8125L23.5 23.7656Z" fill="#89BCE5"/>
<path d="M10.7109 35.375C10.8047 34.6406 10.8672 34.1875 10.8672 34.1875C10.8672 34.1875 10.8672 34.6719 10.8672 35.4766C12.0938 36.2734 13.4375 36.9062 14.8594 37.3672L12.5234 32.625L15.2734 30.7891L11.9141 29.2187L15 24.4297C9.16406 27.0938 7.28125 28.5625 6.5 29.2578C6.23437 29.4922 5.98438 29.8672 5.76562 30.3359C7.03906 32.3437 8.72656 34.0625 10.7109 35.375Z" fill="#3E7EBC"/>
<path d="M33.5 29.2578C32.8359 28.6641 31.4141 27.5312 27.3828 25.5547C26.7656 25.25 26.0859 24.9297 25.3359 24.5859L28.0703 29.2187L24.7109 30.7891L27.4609 32.625L25.125 37.375C26.5547 36.9219 27.8984 36.2812 29.1328 35.4844C29.1328 34.6797 29.1328 34.1953 29.1328 34.1953C29.1328 34.1953 29.1953 34.6406 29.2891 35.3828C31.2734 34.0703 32.9609 32.3516 34.2344 30.3437C34.0078 29.8672 33.7656 29.5 33.5 29.2578Z" fill="#3E7EBC"/>
<path d="M17.9688 38.0391L17.9766 38.125C18.0469 38.125 18.1094 38.1328 18.1797 38.1328L18.1875 38.0703C18.1172 38.0625 18.0469 38.0547 17.9688 38.0391Z" fill="#E6E6E5"/>
<path d="M17.9688 38.0391C18.0391 38.0469 18.1172 38.0547 18.1875 38.0625L19.3359 30.0156L18.3984 28.7188L20.0078 27.0781C20.0078 27.0781 18.2031 27.5078 16.7891 27.9141L17.9688 38.0391Z" fill="#E6E6E5"/>
<path d="M21.8125 38.0703L21.8203 38.1328C21.8828 38.1328 21.9453 38.125 22.0078 38.125L22.0156 38.0469C21.9453 38.0547 21.875 38.0625 21.8125 38.0703Z" fill="#E6E6E5"/>
<path d="M20.0156 27.0859L21.5703 28.7266L20.6484 30.0234L21.7969 38.0703C21.8672 38.0625 21.9375 38.0547 22.0078 38.0469L23.1641 28.1719L20.0156 27.0859Z" fill="#E6E6E5"/>
<path d="M16.7969 27.9219L16.5 25.3516V23.7656C16.4766 23.7734 16.4531 23.7891 16.4297 23.7969L15.125 24.3828C15.0859 24.3984 15.0469 24.4219 15.0078 24.4375L11.9141 29.2187L15.2734 30.7891L12.5234 32.625L14.8594 37.3672C15.5156 37.5781 16.1875 37.75 16.875 37.875C17.2344 37.9453 17.6016 38 17.9688 38.0469L16.7969 27.9219Z" fill="#89BCE5"/>
<path d="M28.0703 29.2187L25.3359 24.5859C24.9766 24.4219 24.6094 24.25 24.2188 24.0781L23.6094 23.8047C23.5703 23.7891 23.5391 23.7734 23.5 23.7578V25.3359L23.1719 28.1641L22.0156 38.0469C22.5781 37.9766 23.1328 37.8828 23.6797 37.7656C24.1719 37.6562 24.6484 37.5234 25.125 37.375L27.4609 32.625L24.7109 30.7891L28.0703 29.2187Z" fill="#89BCE5"/>
<path d="M20.6562 30.0234L21.5781 28.7266L20.0234 27.0859L18.4141 28.7266L19.3516 30.0234L18.2031 38.0703C18.7969 38.1328 19.3984 38.1641 20.0078 38.1641C20.6172 38.1641 21.2188 38.1328 21.8125 38.0703L20.6562 30.0234Z" fill="#1B75BC"/>
<path d="M10.7109 35.375C10.7656 35.4062 10.8125 35.4453 10.8672 35.4766C10.8672 34.6719 10.8672 34.1875 10.8672 34.1875C10.8672 34.1875 10.8047 34.6328 10.7109 35.375Z" fill="#314E67"/>
<path d="M29.1328 35.4766C29.1875 35.4453 29.2344 35.4062 29.2891 35.375C29.1953 34.6406 29.1328 34.1875 29.1328 34.1875C29.1328 34.1875 29.1406 34.6719 29.1328 35.4766Z" fill="#314E67"/>
<path fill-rule="evenodd" clip-rule="evenodd" d="M16.5 22.7031L16.1875 23.8906L17.0469 30.0938L20.0156 27.0859L16.5 22.7031Z" fill="white"/>
<path fill-rule="evenodd" clip-rule="evenodd" d="M23.5 22.7031L23.7422 23.875L22.9375 30.1562L20.0156 27.0859L23.5 22.7031Z" fill="white"/>
</g>
<defs>
<clipPath id="clip0_205_4452">
<rect width="40" height="40" fill="white"/>
</clipPath>
</defs>
</svg>
